<svg width="1024" height="1024" viewBox="0 0 1024 1024" fill="none" xmlns="http://www.w3.org/2000/svg">
<g clip-path="url(#clip0_1_2)">
<path d="M602.201 115.362C561.466 96.7085 518.463 83.4752 474.29 76C468.245 86.8081 462.776 97.9281 457.904 109.314C410.852 102.222 363.002 102.222 315.949 109.314C311.076 97.9293 305.606 86.8094 299.564 76C255.363 83.5383 212.331 96.803 171.556 115.459C90.6055 235.252 68.6612 352.069 79.6333 467.228C127.04 502.261 180.101 528.905 236.511 546C249.213 528.913 260.452 510.786 270.11 491.81C251.766 484.958 234.061 476.503 217.2 466.545C221.637 463.326 225.978 460.009 230.171 456.79C279.234 479.868 332.783 491.833 387 491.833C441.217 491.833 494.766 479.868 543.829 456.79C548.071 460.253 552.411 463.57 556.8 466.545C539.906 476.519 522.169 484.99 503.792 491.859C513.439 510.826 524.679 528.938 537.392 546C593.85 528.973 646.952 502.342 694.367 467.276C707.241 333.729 672.374 217.985 602.201 115.362ZM284.008 396.406C253.432 396.406 228.172 368.653 228.172 334.51C228.172 300.367 252.555 272.37 283.91 272.37C315.266 272.37 340.332 300.367 339.795 334.51C339.259 368.653 315.169 396.406 284.008 396.406ZM489.992 396.406C459.367 396.406 434.205 368.653 434.205 334.51C434.205 300.367 458.587 272.37 489.992 272.37C521.397 272.37 546.267 300.367 545.731 334.51C545.194 368.653 521.153 396.406 489.992 396.406Z" fill="#5665FB"/>
</g>
<path d="M631 588L477 768.486L620.814 947" stroke="#5665FB" stroke-width="40"/>
<path d="M836 947L990 766.514L846.186 588" stroke="#5665FB" stroke-width="40"/>
<line x1="653.93" y1="999.974" x2="805.93" y2="518.974" stroke="#5665FB" stroke-width="40"/>
<defs>
<clipPath id="clip0_1_2">
<rect width="620" height="470" fill="white" transform="translate(77 76)"/>
</clipPath>
</defs>
</svg>
