<svg width="205" height="77" viewBox="0 0 205 77" fill="none" xmlns="http://www.w3.org/2000/svg">
<g clip-path="url(#clip0_401_2)">
<path d="M13.51 64.54C11.2 64.54 9.1 64.12 7.28 63.21C5.46 62.37 4.06 61.18 3.01 59.71C1.96 58.24 1.4 56.63 1.4 54.88C1.4 53.06 1.96 51.45 3.01 49.98C4.06 48.51 5.46 47.39 7.28 46.55C9.1 45.71 11.2 45.29 13.51 45.29C15.82 45.29 17.92 45.71 19.74 46.55C21.56 47.39 23.03 48.51 24.08 49.98C25.13 51.45 25.62 53.06 25.62 54.88C25.62 56.63 25.13 58.24 24.08 59.71C23.03 61.18 21.56 62.37 19.74 63.21C17.92 64.12 15.82 64.54 13.51 64.54ZM73.7636 44.73H57.1736L60.3236 33.46H92.8036V39.34C92.8036 44.87 91.5436 49.49 89.0936 53.2C86.5736 56.98 83.0736 59.85 78.5236 61.74C73.9736 63.63 68.5136 64.61 62.2836 64.61C55.0736 64.61 48.9836 63.49 44.0136 61.25C38.9736 59.01 35.1236 55.93 32.5336 52.01C29.8736 48.16 28.5436 43.68 28.5436 38.71C28.5436 35.14 29.2436 31.71 30.7136 28.56C32.1136 25.41 34.2836 22.61 37.2236 20.16C40.1636 17.71 43.8736 15.82 48.4236 14.42C52.9736 13.09 58.2936 12.39 64.4536 12.39C69.6336 12.39 74.1836 12.81 78.0336 13.58C81.8836 14.42 85.2436 15.4 88.2536 16.59V31.71C85.9436 30.87 83.3536 30.17 80.4136 29.54C77.4036 28.98 74.0436 28.7 70.3336 28.7C65.9936 28.7 62.4936 29.19 59.7636 30.17C57.0336 31.15 55.0036 32.48 53.6736 34.16C52.3436 35.84 51.7136 37.73 51.7136 39.83C51.7136 42.63 52.7636 44.87 54.8636 46.55C56.9636 48.3 59.9036 49.14 63.6136 49.14C66.2036 49.14 68.3736 48.72 70.1236 47.95C71.8036 47.18 72.9936 46.13 73.7636 44.73ZM141.303 44.73H124.713L127.863 33.46H160.343V39.34C160.343 44.87 159.083 49.49 156.633 53.2C154.113 56.98 150.613 59.85 146.063 61.74C141.513 63.63 136.053 64.61 129.823 64.61C122.613 64.61 116.523 63.49 111.553 61.25C106.513 59.01 102.663 55.93 100.073 52.01C97.4127 48.16 96.0827 43.68 96.0827 38.71C96.0827 35.14 96.7827 31.71 98.2527 28.56C99.6527 25.41 101.823 22.61 104.763 20.16C107.703 17.71 111.413 15.82 115.963 14.42C120.513 13.09 125.833 12.39 131.993 12.39C137.173 12.39 141.723 12.81 145.573 13.58C149.423 14.42 152.783 15.4 155.793 16.59V31.71C153.483 30.87 150.893 30.17 147.953 29.54C144.943 28.98 141.583 28.7 137.873 28.7C133.533 28.7 130.033 29.19 127.303 30.17C124.573 31.15 122.543 32.48 121.213 34.16C119.883 35.84 119.253 37.73 119.253 39.83C119.253 42.63 120.303 44.87 122.403 46.55C124.503 48.3 127.443 49.14 131.153 49.14C133.743 49.14 135.913 48.72 137.663 47.95C139.343 47.18 140.533 46.13 141.303 44.73ZM203.382 7L182.452 71.4H163.202L184.132 7H203.382Z" fill="#5665FB"/>
</g>
<defs>
<clipPath id="clip0_401_2">
<rect width="205" height="77" fill="white"/>
</clipPath>
</defs>
</svg>
